<svg width="1920" height="1080" viewBox="0 0 1920 1080" xmlns="http://www.w3.org/2000/svg"><rect width="1920" height="1080" fill="#7abce6"/><path d="M 0,1080 C 0,1080 0,180 0,180 C 121.92051282051281,183.61282051282052 243.84102564102562,187.225641025641 355,187 C 466.1589743589744,186.774358974359 566.5564102564102,182.7102564102564 666,176 C 765.4435897435898,169.2897435897436 863.9333333333334,159.93333333333334 961,173 C 1058.0666666666666,186.06666666666666 1153.7102564102565,221.55641025641023 1250,240 C 1346.2897435897435,258.44358974358977 1443.225641025641,259.8410256410256 1555,247 C 1666.774358974359,234.15897435897438 1793.3871794871795,207.0794871794872 1920,180 C 1920,180 1920,1080 1920,1080 Z" fill="#215dab" opacity="0.09999999999999999"/><path d="M 0,1080 C 0,1080 0,360 0,360 C 96.34102564102562,370.7128205128205 192.68205128205125,381.425641025641 308,373 C 423.31794871794875,364.574358974359 557.6128205128206,337.01025641025643 663,328 C 768.3871794871794,318.98974358974357 844.8666666666666,328.5333333333333 956,353 C 1067.1333333333334,377.4666666666667 1212.9205128205128,416.8564102564103 1322,400 C 1431.0794871794872,383.1435897435897 1503.451282051282,310.0410256410256 1597,294 C 1690.548717948718,277.9589743589744 1805.274358974359,318.9794871794872 1920,360 C 1920,360 1920,1080 1920,1080 Z" fill="#215dab" opacity="0.19999999999999998"/><path d="M 0,1080 C 0,1080 0,540 0,540 C 87.4897435897436,522.4512820512821 174.9794871794872,504.9025641025641 291,501 C 407.0205128205128,497.0974358974359 551.5717948717949,506.8410256410257 673,516 C 794.4282051282051,525.1589743589743 892.7333333333333,533.7333333333332 972,531 C 1051.2666666666667,528.2666666666668 1111.4948717948716,514.2256410256412 1221,502 C 1330.5051282051284,489.77435897435885 1489.2871794871796,479.36410256410255 1614,486 C 1738.7128205128204,492.63589743589745 1829.35641025641,516.3179487179488 1920,540 C 1920,540 1920,1080 1920,1080 Z" fill="#215dab" opacity="0.3"/><path d="M 0,1080 C 0,1080 0,720 0,720 C 134.84358974358975,713.6846153846154 269.6871794871795,707.3692307692307 369,709 C 468.3128205128205,710.6307692307693 532.0948717948718,720.2076923076924 620,726 C 707.9051282051282,731.7923076923076 819.9333333333334,733.8000000000001 940,712 C 1060.0666666666666,690.1999999999999 1188.1717948717949,644.5923076923077 1288,656 C 1387.8282051282051,667.4076923076923 1459.3794871794871,735.8307692307692 1560,756 C 1660.6205128205129,776.1692307692308 1790.3102564102564,748.0846153846154 1920,720 C 1920,720 1920,1080 1920,1080 Z" fill="#215dab" opacity="0.39999999999999997"/><path d="M 0,1080 C 0,1080 0,900 0,900 C 83.44615384615386,930.8025641025641 166.89230769230772,961.6051282051283 290,942 C 413.1076923076923,922.3948717948717 575.876923076923,852.3820512820513 699,857 C 822.123076923077,861.6179487179487 905.6000000000001,940.8666666666667 980,964 C 1054.3999999999999,987.1333333333333 1119.7230769230769,954.1512820512821 1236,920 C 1352.2769230769231,885.8487179487179 1519.5076923076922,850.5282051282051 1642,847 C 1764.4923076923078,843.4717948717949 1842.246153846154,871.7358974358974 1920,900 C 1920,900 1920,1080 1920,1080 Z" fill="#215dab" opacity="0.49999999999999994"/></svg>